# xmcd CD database file
#
# Track frame offsets:
#	150
#	10660
#	21587
#	32687
#	45647
#	57585
#	69320
#	81040
#	92742
#	104557
#	116175
#	127257
#	135740
#	146182
#	156095
#	166542
#	178775
#	188167
#	198660
#	210865
#	220275
#	231957
#
# Disc length: 3238 seconds
#
# Revision: 3
# Processed by: cddbd v1.4PL0 Copyright (c) Steve Scherf et al.
# Submitted via: CDex 1.50Beta7
#
DISCID=430ca416
DTITLE=Bobby ''Blue'' Bland - I Pity The Fool~The Duke Recordings, Vol. 1 [CD2]
DYEAR=1961
DGENRE=Blues
TTITLE0=Bobby's Blues
TTITLE1=Loan Me A Helping Hand
TTITLE2=You Got Me
TTITLE3=Last Night
TTITLE4=Little Boy Blue
TTITLE5=I Lost Sight of the World (LP version)
TTITLE6=You Did Me Wrong
TTITLE7=I Lost Sight of the World (single version)
TTITLE8=I'm Not Ashamed
TTITLE9=Wishing Well
TTITLE10=Is It Real¿
TTITLE11=That's Why
TTITLE12=Hold Me Tenderly
TTITLE13=Someday
TTITLE14=I'll Take Care of You
TTITLE15=Cry, Cry, Cry
TTITLE16=Lead Me On
TTITLE17=I've Been Wrong So Long
TTITLE18=I Pity the Fool
TTITLE19=Close To You
TTITLE20=Two Steps from the Blues
TTITLE21=Don't Cry No More
EXTD=YEAR: 1961
EXTT0=
EXTT1=
EXTT2=
EXTT3=
EXTT4=
EXTT5=
EXTT6=
EXTT7=
EXTT8=
EXTT9=
EXTT10=
EXTT11=
EXTT12=
EXTT13=
EXTT14=
EXTT15=
EXTT16=
EXTT17=
EXTT18=
EXTT19=
EXTT20=
EXTT21=
PLAYORDER=
